<svg width="32" height="32" viewBox="0 0 32 32" fill="none" xmlns="http://www.w3.org/2000/svg">
<g id="Frame">
<path id="Vector" d="M26.6666 4H5.33329C4.62605 4 3.94777 4.28095 3.44767 4.78105C2.94758 5.28115 2.66663 5.95942 2.66663 6.66667V9.33333C2.66943 9.7987 2.79398 10.2552 3.02789 10.6576C3.2618 11.0599 3.59692 11.394 3.99996 11.6267V25.3333C3.99996 26.0406 4.28091 26.7189 4.78101 27.219C5.2811 27.719 5.95938 28 6.66663 28H25.3333C26.0405 28 26.7188 27.719 27.2189 27.219C27.719 26.7189 28 26.0406 28 25.3333V11.6267C28.403 11.394 28.7381 11.0599 28.972 10.6576C29.2059 10.2552 29.3305 9.7987 29.3333 9.33333V6.66667C29.3333 5.95942 29.0523 5.28115 28.5522 4.78105C28.0521 4.28095 27.3739 4 26.6666 4ZM5.33329 6.66667H26.6666V9.33333H5.33329V6.66667ZM6.66663 25.3333V12H25.3333V25.3333H6.66663Z" fill="white"/>
<path id="Vector_2" d="M10.6666 14.6666H21.3333V17.3333H10.6666V14.6666Z" fill="white"/>
</g>
</svg>
