<svg width="178" height="93" viewBox="0 0 178 93" fill="none" xmlns="http://www.w3.org/2000/svg">
<g id="Group">
<g id="Group_2">
<path id="Vector" d="M171.775 67.5774V92.8581H-6.13184V66.141H-1.25491V78.143L4.44067 78.0791L9.69544 78.0153V46.1032H15.6639V14.1911H21.3035V0.59314H31.4912V13.449H38.6491V43.39L38.929 43.4937L42.2876 44.7227L43.9669 45.3531L48.0042 46.8374L48.5359 47.0369L49.6695 47.4518L49.8934 47.5316L50.4601 47.7391L51.8245 48.2418L52.8671 48.6329L54.2315 49.1356L54.7983 49.3431L55.3301 49.5346L66.8542 53.78V9.9936H77.9165V27.5497H98.9495V13.7043H115.435V49.0718H136.908V20.3836H144.934V4.05647H162.937V82.7235H169.445V67.5774H171.775Z" fill="url(#paint0_linear_1_5842)"/>
<path id="Vector_2" d="M18.5957 15.6594H16.6646V92.8661H18.5957V15.6594Z" fill="#E52138"/>
<path id="Vector_3" d="M21.2125 15.6594H19.2814V92.8661H21.2125V15.6594Z" fill="#E52138"/>
<path id="Vector_4" d="M24.823 2.04553H22.8918V92.8581H24.823V2.04553Z" fill="#E52138"/>
<path id="Vector_5" d="M27.4399 2.04553H25.5087V92.8581H27.4399V2.04553Z" fill="#E52138"/>
<path id="Vector_6" d="M30.0638 2.04553H28.1396V92.8581H30.0638V2.04553Z" fill="#E52138"/>
<path id="Vector_7" d="M34.0171 15.6594H32.0859V92.8661H34.0171V15.6594Z" fill="#E52138"/>
<path id="Vector_8" d="M36.641 15.6594H34.7098V92.8661H36.641V15.6594Z" fill="#E52138"/>
<path id="Vector_9" d="M70.5555 11.3901H68.6313V92.8582H70.5555V11.3901Z" fill="#E52138"/>
<path id="Vector_10" d="M73.4874 11.3901H71.5632V92.8582H73.4874V11.3901Z" fill="#E52138"/>
<path id="Vector_11" d="M76.4121 11.3901H74.4879V92.8582H76.4121V11.3901Z" fill="#E52138"/>
<path id="Vector_12" d="M80.3164 29.1138H78.3922V92.8582H80.3164V29.1138Z" fill="#E52138"/>
<path id="Vector_13" d="M83.2482 29.1138H81.324V92.8582H83.2482V29.1138Z" fill="#E52138"/>
<path id="Vector_14" d="M101.951 15.0131H100.027V92.8582H101.951V15.0131Z" fill="#E52138"/>
<path id="Vector_15" d="M104.967 15.0131H103.036V92.8582H104.967V15.0131Z" fill="#E52138"/>
<path id="Vector_16" d="M107.976 15.0131H106.052V92.8582H107.976V15.0131Z" fill="#E52138"/>
<path id="Vector_17" d="M110.984 15.0131H109.053V92.8582H110.984V15.0131Z" fill="#E52138"/>
<path id="Vector_18" d="M113.993 15.0131H112.069V92.8582H113.993V15.0131Z" fill="#E52138"/>
<path id="Vector_19" d="M140.022 21.5646H138.098V92.8581H140.022V21.5646Z" fill="#E52138"/>
<path id="Vector_20" d="M143.821 21.5646H141.89V92.8581H143.821V21.5646Z" fill="#E52138"/>
<path id="Vector_21" d="M148.405 5.61255H146.473V92.8661H148.405V5.61255Z" fill="#E52138"/>
<path id="Vector_22" d="M151.658 5.61255H149.727V92.8661H151.658V5.61255Z" fill="#E52138"/>
<path id="Vector_23" d="M154.912 5.61255H152.981V92.8661H154.912V5.61255Z" fill="#E52138"/>
<path id="Vector_24" d="M158.165 5.61255H156.234V92.8661H158.165V5.61255Z" fill="#E52138"/>
<path id="Vector_25" d="M161.419 5.61255H159.488V92.8661H161.419V5.61255Z" fill="#E52138"/>
</g>
<g id="Group_3">
<path id="Vector_26" d="M177.47 67.5774V92.8581H-6.13184V66.141H4.44067V78.143L15.391 78.0153V38.8095L15.6569 38.8893L16.6575 39.2085L18.5887 39.807L19.2814 40.0224L21.2125 40.6289L21.3525 40.6768L22.3531 40.988L22.8778 41.1476L24.2842 41.5945L24.809 41.7541L24.97 41.8099L25.4947 41.9695L26.9011 42.4164L27.4259 42.576L28.1256 42.7915L28.5734 42.9351L30.0498 43.406L30.5046 43.5496L31.1973 43.7651L32.0719 44.0364L33.1355 44.3636L33.8352 44.587L34.0101 44.6429L34.7098 44.8663L35.7664 45.1935L36.648 45.4648L37.7885 45.8239L38.936 46.191L39.7267 46.4384L40.4264 46.6538L40.6783 46.7336V88.1659L42.3576 88.102L43.82 88.0462V50.572H48.0462L48.0112 46.8533L47.9902 44.7386L47.9342 38.8254H52.1604V42.3925L57.856 42.3446V32.7446H71.2553V42.5202H76.0273V35.8968H81.45V50.5561H87.4674V30.7097H89.2587V26.8155H90.6441V20.3916H92.6732V15.3163H100.895V20.607H103.784V27.3741L104.666 27.3821L104.988 27.3901L105.751 27.398H105.849V30.598H106.073L107.682 30.59H107.724L107.682 42.4244L107.654 50.3166H107.682L108.004 50.3087L108.766 50.2927L109.074 50.2847V35.6574H111.019L111.782 35.6494H115.463L116.715 35.6414H121.158L124.524 35.6334L129.338 35.6254V24.1661H143.57V82.5958H146.648V33.1197H156.626V74.0652H159.229V56.2538L159.516 56.4772L160.642 57.363L161.447 58.0014L161.958 58.4004L162.958 59.1904L163.889 59.9246L165.211 60.962L167.143 62.4782L167.255 62.566V79.4996C167.255 79.4996 168.052 79.6911 168.661 79.723C169.025 79.731 169.312 79.6831 169.312 79.4996V67.5774H177.47Z" fill="url(#paint1_linear_1_5842)"/>
<path id="Vector_27" d="M11.1648 81.335H9.23364V84.2317H11.1648V81.335Z" fill="#E52138"/>
<path id="Vector_28" d="M19.3163 45.7122H17.3851V48.6089H19.3163V45.7122Z" fill="#E52138"/>
<path id="Vector_29" d="M22.633 45.7122H20.7018V48.6089H22.633V45.7122Z" fill="#E52138"/>
<path id="Vector_30" d="M25.9495 45.7122H24.0183V48.6089H25.9495V45.7122Z" fill="#E52138"/>
<path id="Vector_31" d="M29.2731 45.7122H27.3419V48.6089H29.2731V45.7122Z" fill="#E52138"/>
<path id="Vector_32" d="M22.633 57.77H20.7018V60.6668H22.633V57.77Z" fill="#E52138"/>
<path id="Vector_33" d="M25.9495 57.77H24.0183V60.6668H25.9495V57.77Z" fill="#E52138"/>
<path id="Vector_34" d="M29.2731 57.77H27.3419V60.6668H29.2731V57.77Z" fill="#E52138"/>
<path id="Vector_35" d="M25.2569 69.8278H23.3257V72.7245H25.2569V69.8278Z" fill="#E52138"/>
<path id="Vector_36" d="M28.5805 69.8278H26.6493V72.7245H28.5805V69.8278Z" fill="#E52138"/>
<path id="Vector_37" d="M37.2007 69.8278H35.2695V72.7245H37.2007V69.8278Z" fill="#E52138"/>
<path id="Vector_38" d="M25.0329 73.9136H23.1017V76.8103H25.0329V73.9136Z" fill="#E52138"/>
<path id="Vector_39" d="M28.3495 73.9136H26.4183V76.8103H28.3495V73.9136Z" fill="#E52138"/>
<path id="Vector_40" d="M35.8853 56.9321H33.9541V59.8289H35.8853V56.9321Z" fill="#E52138"/>
<path id="Vector_41" d="M19.3163 65.4388H17.3851V68.3356H19.3163V65.4388Z" fill="#E52138"/>
<path id="Vector_42" d="M39.3628 56.9321H37.4316V59.8289H39.3628V56.9321Z" fill="#E52138"/>
<path id="Vector_43" d="M62.2361 35.6573H60.3049V40.7566H62.2361V35.6573Z" fill="#E52138"/>
<path id="Vector_44" d="M65.2728 35.6573H63.3417V40.7566H65.2728V35.6573Z" fill="#E52138"/>
<path id="Vector_45" d="M68.3096 35.6573H66.3784V40.7566H68.3096V35.6573Z" fill="#E52138"/>
<path id="Vector_46" d="M22.633 51.3381H20.7018V54.2349H22.633V51.3381Z" fill="#E52138"/>
<path id="Vector_47" d="M25.9495 51.3381H24.0183V54.2349H25.9495V51.3381Z" fill="#E52138"/>
<path id="Vector_48" d="M29.2731 51.3381H27.3419V54.2349H29.2731V51.3381Z" fill="#E52138"/>
<path id="Vector_49" d="M51.8245 46.6378H49.8933V49.5345H51.8245V46.6378Z" fill="#E52138"/>
<path id="Vector_50" d="M56.1627 46.6378H54.2316V49.5345H56.1627V46.6378Z" fill="#E52138"/>
<path id="Vector_51" d="M60.5009 46.6378H58.5697V49.5345H60.5009V46.6378Z" fill="#E52138"/>
<path id="Vector_52" d="M47.7033 54.8733H45.7721V57.77H47.7033V54.8733Z" fill="#E52138"/>
<path id="Vector_53" d="M50.2083 54.8733H48.2771V57.77H50.2083V54.8733Z" fill="#E52138"/>
<path id="Vector_54" d="M52.7132 54.8733H50.782V57.77H52.7132V54.8733Z" fill="#E52138"/>
<path id="Vector_55" d="M55.2182 54.8733H53.287V57.77H55.2182V54.8733Z" fill="#E52138"/>
<path id="Vector_56" d="M57.7231 54.8733H55.7919V57.77H57.7231V54.8733Z" fill="#E52138"/>
<path id="Vector_57" d="M60.228 54.8733H58.2969V57.77H60.228V54.8733Z" fill="#E52138"/>
<path id="Vector_58" d="M78.7211 54.8733H76.7899V57.77H78.7211V54.8733Z" fill="#E52138"/>
<path id="Vector_59" d="M95.1082 32.7606H93.177V35.6574H95.1082V32.7606Z" fill="#E52138"/>
<path id="Vector_60" d="M97.9629 32.7606H96.0317V35.6574H97.9629V32.7606Z" fill="#E52138"/>
<path id="Vector_61" d="M91.2319 38.2109H89.3007V41.1077H91.2319V38.2109Z" fill="#E52138"/>
<path id="Vector_62" d="M94.1426 38.2109H92.2114V41.1077H94.1426V38.2109Z" fill="#E52138"/>
<path id="Vector_63" d="M97.0534 38.2109H95.1222V41.1077H97.0534V38.2109Z" fill="#E52138"/>
<path id="Vector_64" d="M99.964 38.2109H98.0328V41.1077H99.964V38.2109Z" fill="#E52138"/>
<path id="Vector_65" d="M102.875 38.2109H100.944V41.1077H102.875V38.2109Z" fill="#E52138"/>
<path id="Vector_66" d="M95.451 44.6428H93.5198V47.5395H95.451V44.6428Z" fill="#E52138"/>
<path id="Vector_67" d="M97.697 44.6428H95.7659V47.5395H97.697V44.6428Z" fill="#E52138"/>
<path id="Vector_68" d="M90.651 54.2349H88.7198V57.1316H90.651V54.2349Z" fill="#E52138"/>
<path id="Vector_69" d="M93.1769 54.2349H91.2457V57.1316H93.1769V54.2349Z" fill="#E52138"/>
<path id="Vector_70" d="M102.511 54.2349H100.58V57.1316H102.511V54.2349Z" fill="#E52138"/>
<path id="Vector_71" d="M105.023 54.2349H103.092V57.1316H105.023V54.2349Z" fill="#E52138"/>
<path id="Vector_72" d="M113.265 37.2054H111.334V40.1022H113.265V37.2054Z" fill="#E52138"/>
<path id="Vector_73" d="M123.81 37.2054H121.879V40.1022H123.81V37.2054Z" fill="#E52138"/>
<path id="Vector_74" d="M123.81 42.8154H121.879V45.7122H123.81V42.8154Z" fill="#E52138"/>
<path id="Vector_75" d="M123.81 48.4174H121.879V51.3141H123.81V48.4174Z" fill="#E52138"/>
<path id="Vector_76" d="M120.556 48.0902H118.625V50.987H120.556V48.0902Z" fill="#E52138"/>
<path id="Vector_77" d="M115.812 48.0902H113.881V50.987H115.812V48.0902Z" fill="#E52138"/>
<path id="Vector_78" d="M126.903 37.2054H124.971V40.1022H126.903V37.2054Z" fill="#E52138"/>
<path id="Vector_79" d="M126.903 42.8154H124.971V45.7122H126.903V42.8154Z" fill="#E52138"/>
<path id="Vector_80" d="M137.692 26.8474H135.761V29.7442H137.692V26.8474Z" fill="#E52138"/>
<path id="Vector_81" d="M141.939 26.8474H140.008V29.7442H141.939V26.8474Z" fill="#E52138"/>
<path id="Vector_82" d="M137.692 30.8055H135.761V33.7023H137.692V30.8055Z" fill="#E52138"/>
<path id="Vector_83" d="M141.939 30.8055H140.008V33.7023H141.939V30.8055Z" fill="#E52138"/>
<path id="Vector_84" d="M149.748 35.0748H147.817V37.9715H149.748V35.0748Z" fill="#E52138"/>
<path id="Vector_85" d="M152.351 35.0748H150.42V37.9715H152.351V35.0748Z" fill="#E52138"/>
<path id="Vector_86" d="M149.965 39.6554H148.034V42.5521H149.965V39.6554Z" fill="#E52138"/>
<path id="Vector_87" d="M155.612 46.1031H153.68V48.9999H155.612V46.1031Z" fill="#E52138"/>
<path id="Vector_88" d="M155.612 50.9869H153.68V53.8837H155.612V50.9869Z" fill="#E52138"/>
<path id="Vector_89" d="M155.612 55.8707H153.68V58.7675H155.612V55.8707Z" fill="#E52138"/>
<path id="Vector_90" d="M155.612 60.7545H153.68V63.6513H155.612V60.7545Z" fill="#E52138"/>
<path id="Vector_91" d="M162.448 60.6667H160.516V63.5635H162.448V60.6667Z" fill="#E52138"/>
<path id="Vector_92" d="M166.023 70.0353H164.092V72.932H166.023V70.0353Z" fill="#E52138"/>
<path id="Vector_93" d="M176.211 67.9604H174.28V70.8572H176.211V67.9604Z" fill="#E52138"/>
<path id="Vector_94" d="M172.733 67.9604H170.802V70.8572H172.733V67.9604Z" fill="#E52138"/>
<path id="Vector_95" d="M137.692 38.6499H135.761V41.5467H137.692V38.6499Z" fill="#E52138"/>
<path id="Vector_96" d="M132.297 38.2109H130.366V41.1077H132.297V38.2109Z" fill="#E52138"/>
<path id="Vector_97" d="M141.939 38.6499H140.008V41.5467H141.939V38.6499Z" fill="#E52138"/>
<path id="Vector_98" d="M137.692 46.5022H135.761V49.399H137.692V46.5022Z" fill="#E52138"/>
<path id="Vector_99" d="M141.939 46.5022H140.008V49.399H141.939V46.5022Z" fill="#E52138"/>
<path id="Vector_100" d="M137.692 54.3466H135.761V57.2433H137.692V54.3466Z" fill="#E52138"/>
<path id="Vector_101" d="M141.939 54.3466H140.008V57.2433H141.939V54.3466Z" fill="#E52138"/>
<path id="Vector_102" d="M137.692 62.1909H135.761V65.0877H137.692V62.1909Z" fill="#E52138"/>
<path id="Vector_103" d="M141.939 62.1909H140.008V65.0877H141.939V62.1909Z" fill="#E52138"/>
<path id="Vector_104" d="M137.692 70.0353H135.761V72.932H137.692V70.0353Z" fill="#E52138"/>
<path id="Vector_105" d="M141.939 70.0353H140.008V72.932H141.939V70.0353Z" fill="#E52138"/>
<path id="Vector_106" d="M126.903 48.4174H124.971V51.3141H126.903V48.4174Z" fill="#E52138"/>
<path id="Vector_107" d="M123.81 59.6373H121.879V62.5341H123.81V59.6373Z" fill="#E52138"/>
<path id="Vector_108" d="M113.265 60.6667H111.334V63.5635H113.265V60.6667Z" fill="#E52138"/>
<path id="Vector_109" d="M113.265 66.1331H111.334V69.0298H113.265V66.1331Z" fill="#E52138"/>
<path id="Vector_110" d="M113.265 71.5994H111.334V74.4961H113.265V71.5994Z" fill="#E52138"/>
<path id="Vector_111" d="M113.265 77.0657H111.334V79.9624H113.265V77.0657Z" fill="#E52138"/>
<path id="Vector_112" d="M99.8101 22.1472H93.6528V25.044H99.8101V22.1472Z" fill="#E52138"/>
<path id="Vector_113" d="M48.6689 68.3834H46.7377V71.2802H48.6689V68.3834Z" fill="#E52138"/>
<path id="Vector_114" d="M51.1739 68.6548H49.2427V71.5515H51.1739V68.6548Z" fill="#E52138"/>
<path id="Vector_115" d="M72.5218 69.0298H70.5906V71.9265H72.5218V69.0298Z" fill="#E52138"/>
<path id="Vector_116" d="M75.9993 69.0298H74.0681V71.9265H75.9993V69.0298Z" fill="#E52138"/>
<path id="Vector_117" d="M2.92227 74.0731H0.991089V76.9699H2.92227V74.0731Z" fill="#E52138"/>
</g>
<path id="Vector_118" d="M4.44067 66.141H-6.13184V66.3565H4.44067V66.141Z" fill="url(#paint2_linear_1_5842)"/>
</g>
<defs>
<linearGradient id="paint0_linear_1_5842" x1="83.6033" y1="47.2129" x2="84.0727" y2="-0.146902" gradientUnits="userSpaceOnUse">
<stop stop-color="#F32940"/>
<stop offset="0.963542" stop-color="#FF7787"/>
</linearGradient>
<linearGradient id="paint1_linear_1_5842" x1="86.4762" y1="54.4967" x2="86.7974" y2="14.693" gradientUnits="userSpaceOnUse">
<stop stop-color="#F32940"/>
<stop offset="0.963542" stop-color="#FF7787"/>
</linearGradient>
<linearGradient id="paint2_linear_1_5842" x1="-6.13184" y1="66.3565" x2="-5.67827" y2="64.1037" gradientUnits="userSpaceOnUse">
<stop stop-color="#A40C1E"/>
<stop offset="1" stop-color="#EF6575"/>
</linearGradient>
</defs>
</svg>
